<?xml version="1.0" encoding="UTF-8" standalone="no"?>
<svg
   xmlns:dc="http://purl.org/dc/elements/1.1/"
   xmlns:cc="http://creativecommons.org/ns#"
   xmlns:rdf="http://www.w3.org/1999/02/22-rdf-syntax-ns#"
   xmlns:svg="http://www.w3.org/2000/svg"
   xmlns="http://www.w3.org/2000/svg"
   version="1.1"
   id="svg2"
   viewBox="0 0 640.00001 480.00001"
   height="480"
   width="640">
  <defs
     id="defs4">
    <clipPath
       id="a">
      <path
         style="fill-opacity:0.67000002"
         d="M -170.67,0 512,0 l 0,512 -682.67,0 z"
         id="path3610" />
    </clipPath>
  </defs>
  <metadata
     id="metadata7">
    <rdf:RDF>
      <cc:Work
         rdf:about="">
        <dc:format>image/svg+xml</dc:format>
        <dc:type
           rdf:resource="http://purl.org/dc/dcmitype/StillImage" />
        <dc:title></dc:title>
      </cc:Work>
    </rdf:RDF>
  </metadata>
  <g
     transform="translate(0,-572.36216)"
     id="layer1">
    <g
       transform="translate(-41.704091,496.96028)"
       id="g3429">
      <path
         id="path3415"
         d="m 292.72508,405.3286 c -28.28987,-11.18408 -47.42854,-35.22028 -54.78085,-68.79912 -7.08587,-32.36203 1.63109,-64.8858 24.02993,-89.65784 16.79054,-18.56953 32.93797,-25.58226 59.00266,-25.62447 16.42799,-0.0266 21.95193,1.11324 32.58182,6.7231 7.04,3.71532 15.41818,9.34614 18.61818,12.51292 l 5.81818,5.75779 -8.14545,-4.48711 c -4.48,-2.46791 -15.47637,-5.00336 -24.43637,-5.63432 -65.48461,-4.61144 -100.90924,83.42345 -54.58008,135.63869 15.48993,17.45791 32.49776,24.65665 54.58008,23.10161 8.96,-0.63095 19.95637,-3.1664 24.43637,-5.63431 l 8.14545,-4.48713 -5.81818,5.75779 c -19.19381,18.9946 -52.97268,25.30057 -79.45174,14.8324 z m 141.20697,-46.56021 c -2.31052,-7.93443 -4.48605,-14.80834 -4.83454,-15.27539 -0.34848,-0.46701 -3.86562,1.03458 -7.81589,3.33684 -3.95026,2.3023 -9.72453,5.27536 -12.83169,6.6068 l -5.64941,2.42077 5.73219,-14.60826 c 3.15271,-8.03454 5.42601,-14.89257 5.05178,-15.24006 -0.37422,-0.3475 -6.17858,-2.65629 -12.89858,-5.13066 -6.72,-2.47437 -12.21818,-4.8993 -12.21818,-5.38873 0,-0.48943 5.49818,-2.91436 12.21818,-5.38873 6.72,-2.47437 12.52436,-4.78316 12.89858,-5.13066 0.37423,-0.34749 -1.92449,-7.27033 -5.10829,-15.38407 -3.18378,-8.11375 -5.28789,-14.75228 -4.67577,-14.75228 0.61212,0 6.41862,3.03018 12.90335,6.73373 6.48472,3.70355 12.06871,6.35928 12.40886,5.90164 0.34015,-0.45765 2.50889,-7.32389 4.81941,-15.25832 l 4.20091,-14.42623 4.1321,10.49181 c 2.27265,5.77049 4.61112,12.54296 5.19661,15.04993 0.97548,4.17682 2.15415,4.01503 14.08985,-1.93414 7.1639,-3.57075 13.0253,-5.87775 13.0253,-5.12667 0,0.75108 -2.62686,7.20807 -5.83747,14.34887 l -5.83748,12.98327 8.61077,4.0549 c 4.73591,2.2302 11.25185,4.802 14.47985,5.7151 5.75341,1.62748 5.71022,1.72394 -2.19148,4.89437 -4.43331,1.7788 -10.96636,4.52025 -14.5179,6.09212 l -6.45734,2.85794 5.87552,13.0679 c 3.23154,7.18736 5.87553,13.63237 5.87553,14.32225 0,0.68989 -5.85097,-1.662 -13.00217,-5.22641 -12.05425,-6.00826 -13.08146,-6.14114 -14.08984,-1.82287 -0.59821,2.56184 -2.9471,9.37917 -5.21975,15.14966 l -4.1321,10.49181 -4.20091,-14.42623 z"
         style="fill:#fdfcfc" />
      <path
         id="path3409"
         d="m 41.704091,195.13563 0,-119.645929 164.538179,0 c 96.27413,0 169.33521,-1.17407 168.04157,0.19224 -1.216,1.2843 -77.909,57.660079 -164.309,120.067729 -86.4,62.40766 -156.265299,115.10914 -159.145289,117.22244 l -5.23637,3.84238 z"
         style="fill:#0097c2" />
      <path
         id="path3407"
         d="M 210.43137,437.10024 C 120.83137,372.17416 46.669371,318.11606 45.626921,316.97116 44.584481,315.82626 118.19622,261.02456 209.20858,195.18961 L 374.6856,75.489701 l 153.50923,0 153.50926,0 0,239.999999 0,240 L 527.52227,555.31868 373.34046,555.14767 210.43137,437.10022 Z M 359.75621,401.0434 c 7.88869,-4.7654 16.79051,-11.66735 19.78182,-15.3377 2.99134,-3.67032 4.39152,-6.15609 3.11152,-5.52391 -1.28,0.63221 -7.56364,3.93666 -13.96364,7.34327 -17.02183,9.0604 -40.38281,8.71383 -57.73905,-0.85666 -25.18496,-13.88732 -39.59884,-39.7962 -39.59884,-71.1787 0,-31.3825 14.41388,-57.29138 39.59884,-71.17871 17.35624,-9.57047 40.71722,-9.91706 57.73905,-0.85665 6.4,3.40661 12.68364,6.71107 13.96364,7.34326 1.28,0.63218 -0.12009,-1.85358 -3.11152,-5.52391 -2.99131,-3.67034 -11.89313,-10.61913 -19.78182,-15.44178 -13.67414,-8.35952 -15.48262,-8.76844 -38.77939,-8.76844 -22.0905,0 -25.71864,0.70967 -37.79358,7.39246 -36.67246,20.29614 -55.67059,66.46347 -46.01571,111.82273 5.86778,27.56721 27.45513,54.37734 53.21015,66.08364 8.51751,3.87143 15.51781,4.74972 32.92641,4.13112 19.86428,-0.70588 23.56538,-1.66536 36.45212,-9.45002 z m 84.56606,-40.96354 c 1.63117,-6.56613 3.75673,-12.48936 4.72346,-13.16275 0.96675,-0.67339 7.63036,1.70279 14.80804,5.28039 7.17768,3.5776 13.05032,5.89021 13.05032,5.13915 0,-0.75108 -2.68858,-7.34536 -5.97464,-14.65398 -3.28606,-7.30859 -5.30656,-14.05624 -4.48999,-14.99476 0.81657,-0.93852 6.11494,-3.4769 11.77414,-5.64083 5.65921,-2.16394 10.28946,-5.11476 10.28946,-6.55738 0,-1.44262 -4.63025,-4.39344 -10.28946,-6.55738 -5.6592,-2.16393 -10.95757,-4.70231 -11.77414,-5.64083 -0.81657,-0.93852 1.20393,-7.68617 4.48999,-14.99477 3.28606,-7.3086 5.97464,-13.90288 5.97464,-14.65396 0,-0.75108 -5.87264,1.56153 -13.05032,5.13914 -7.17768,3.5776 -13.84129,5.95378 -14.80804,5.28039 -0.96673,-0.67338 -3.09229,-6.59662 -4.72346,-13.16275 -1.63116,-6.56613 -3.73515,-12.47436 -4.67553,-13.12939 -0.94041,-0.65503 -3.55263,4.39177 -5.80497,11.21511 -2.25235,6.82335 -4.87742,13.38391 -5.83354,14.57904 -0.95609,1.19514 -7.0672,-0.87044 -13.58024,-4.59016 -6.51303,-3.71972 -12.38714,-6.76313 -13.05356,-6.76313 -0.66639,0 1.38552,6.61876 4.55983,14.70836 3.17431,8.0896 5.28263,15.59982 4.68515,16.68938 -0.59748,1.08956 -5.853,3.48517 -11.67895,5.32357 -5.82596,1.83841 -11.096,4.26047 -11.71119,5.38236 -0.61521,1.1219 3.86267,4.1059 9.95086,6.63111 6.08817,2.52522 11.87915,5.36783 12.86879,6.31691 0.98968,0.94909 -0.82985,8.42613 -4.04338,16.61564 -3.21352,8.18954 -5.2975,14.89005 -4.63111,14.89005 0.66642,0 6.54053,-3.04341 13.05356,-6.76312 6.51304,-3.71974 12.62415,-5.78531 13.58024,-4.59017 0.95612,1.19512 3.58119,7.7557 5.83354,14.57905 2.25234,6.82334 4.86456,11.87013 5.80497,11.2151 0.94038,-0.65503 3.04437,-6.56325 4.67553,-13.12939 z"
         style="fill:#df0032" />
      <path
         id="path3405"
         d="m 44.704091,436.74063 c 0.1998,-94.90507 -0.98707,-121.16789 1.3233,-119.59734 13.04725,8.86927 325.339589,236.04945 327.042159,237.86445 1.30879,1.39526 -69.42616,0.48196 -166.82728,0.48196 l -161.788179,0 z"
         style="fill:#00ac63" />
    </g>
  </g>
</svg>
