<?xml version="1.0" encoding="UTF-8"?>
<!DOCTYPE svg PUBLIC "-//W3C//DTD SVG 1.1//EN" "http://www.w3.org/Graphics/SVG/1.1/DTD/svg11.dtd">
<!-- Creator: CorelDRAW X6 -->
<svg xmlns="http://www.w3.org/2000/svg" xml:space="preserve" width="300px" height="405px" version="1.1" style="shape-rendering:geometricPrecision; text-rendering:geometricPrecision; image-rendering:optimizeQuality; fill-rule:evenodd; clip-rule:evenodd"
viewBox="0 0 62 84"
 xmlns:xlink="http://www.w3.org/1999/xlink">
 <defs>
  <style type="text/css">
   <![CDATA[
    .str0 {stroke:#FEFEFE;stroke-width:0.0312541}
    .fil0 {fill:#201E1E}
    .fil1 {fill:#FEFEFE}
   ]]>
  </style>
 </defs>
 <g id="Layer_x0020_1">
  <metadata id="CorelCorpID_0Corel-Layer"/>
  <path id="path5640-3-9-6" class="fil0" d="M62 31c0,-17 -14,-31 -31,-31 -17,0 -31,14 -31,31 0,17 14,31 31,31 17,0 31,-14 31,-31z"/>
  <path id="path5640-3-9-6_0" class="fil1" d="M17 32c-3,0 -4,0 -7,1 0,0 0,0 0,0 0,0 4,1 4,1 0,0 1,-1 4,-1 2,0 4,1 4,1l4 0c0,0 0,0 0,0 0,0 -3,-2 -7,-2 0,0 -1,0 -1,0z"/>
  <path id="path5640-3-9-6_1" class="fil1" d="M45 32c3,0 4,0 7,1 0,0 0,0 0,0 0,0 -4,1 -4,1 0,0 -1,-1 -4,-1 -2,0 -4,1 -4,1l-4 0c0,0 0,0 0,0 0,0 3,-2 7,-2 0,0 1,0 1,0z"/>
  <path id="path5640-3-9-6_2" class="fil1 str0" d="M32 51c0,0 0,-10 7,-10 7,0 8,18 9,28 1,9 3,12 9,12 2,0 2,0 2,0 0,1 -2,1 -2,1 0,0 -12,5 -13,-9 0,-4 -1,-8 -1,-13 0,-6 1,-11 -3,-15 -4,-3 -9,6 -9,6z"/>
  <path id="path5640-3-9-6_3" class="fil1 str0" d="M30 51c0,0 0,-10 -7,-10 -7,0 -8,18 -9,28 -1,9 -3,12 -9,12 -2,0 -2,0 -2,0 0,1 2,1 2,1 0,0 12,5 13,-9 0,-4 1,-8 1,-13 0,-6 -1,-11 3,-15 4,-3 9,6 9,6z"/>
  <path id="path5640-3-9-6_4" class="fil1" d="M24 53c3,2 7,2 11,1 1,0 2,-1 3,-1l-13 0z"/>
 </g>
</svg>
